<svg xmlns="http://www.w3.org/2000/svg" viewBox="0 0 141.05 54.55"><defs><style>.cls-1{fill:#589aa9;}.cls-2{fill:#fcfdfe;}.cls-3{fill:#f6f9fb;}</style></defs><title>Samuel Abiassi-Guillon</title><g id="Calque_2" data-name="Calque 2"><g id="Calque_1-2" data-name="Calque 1"><path class="cls-1" d="M70.76,54.75q-34.74,0-69.48,0c-.8,0-1.06-.08-1.06-1q.06-26.3,0-52.61c0-.82.24-.94,1-.94q69.54,0,139.08,0c.93,0,1,.28,1,1.06q0,26.24,0,52.48c0,.89-.22,1-1,1Q105.49,54.73,70.76,54.75Zm9.13-22.84c.15.37.24.6.33.84C81,35.07,82,35.61,84.39,35a13.72,13.72,0,0,0,4.22-1.84c.54-.35.88-.38,1.35.16a6.34,6.34,0,0,0,6,2,13.3,13.3,0,0,0,6.13-2.63c.84-.63,1.13-.46,1.58.4,1.17,2.29,2.34,2.72,4.8,1.94a16.55,16.55,0,0,0,4-1.95c3.21-2.1,2.63-1,1.4-4.56-.23-.66-.51-.72-1.06-.28a19.57,19.57,0,0,1-3.55,2.32c-1.73.85-2.45.42-2.52-1.53A7.85,7.85,0,0,1,108,25a116.23,116.23,0,0,0,5.9-11.57,18.7,18.7,0,0,0,1.66-8.14c-.08-1.26-.2-2.61-1.57-3.17a3.61,3.61,0,0,0-3.61.79,11.29,11.29,0,0,0-3.11,3.71,38.36,38.36,0,0,0-5.14,20.81c0,.47.08.91-.36,1.24A14.23,14.23,0,0,1,96,31.57a2.5,2.5,0,0,1-2.25-.42c-.84-.73-.81-1,.23-1.37a10.29,10.29,0,0,0,4.93-3.68,4.74,4.74,0,0,0,.37-5.5A4.81,4.81,0,0,0,94,18.8a5.55,5.55,0,0,0-2.8,1.56,10.75,10.75,0,0,0-3,8.32c0,.71,0,1.3-.73,1.64-1,.46-2.12,1.61-3.19.92s-.57-2.21-.39-3.37c.37-2.43.82-4.84,1.23-7.26.09-.54.16-1.12-.35-1.5a3,3,0,0,0-2.64-.3c-.8.19-1.08.78-1.22,1.55-.46,2.54-1,5.07-1.47,7.6a4.6,4.6,0,0,1-1.56,3,1.27,1.27,0,0,1-1.38.32,1.38,1.38,0,0,1-.67-1.26,3.45,3.45,0,0,1,.09-.86c.48-3,.93-6,1.45-9,.17-1-.16-1.37-1.11-1.48a2.54,2.54,0,0,0-2.66,1.46,9,9,0,0,0-1,3.07,45.88,45.88,0,0,0-.75,4.68c-.12,1.8-1.36,2.44-2.68,3.09-.81.4-1.26,0-1.46-.76a10.14,10.14,0,0,1,0-3.23c.18-2.07.66-4.11.65-6.21,0-.91-.12-1.67-1.09-2a2.1,2.1,0,0,0-2.47.69,28.31,28.31,0,0,0-2.35,3.38L60.7,25.55c.08-1.64.56-3.15.69-4.72a1.78,1.78,0,0,0-.83-1.94,2.06,2.06,0,0,0-2.24.15,4.26,4.26,0,0,0-1.19,1.27c-.91,1.45-1.8,2.9-2.71,4.34-.15.24-.16.67-.66.61.17-1.58.42-3.14.5-4.71.09-1.73-.85-2.36-2.51-1.83a1.92,1.92,0,0,0-1.18,1.5,33.24,33.24,0,0,0-1.47,7.46c-.15,1.89-1.32,2.78-2.72,3.56-.84.47-1.36.13-1.46-.81A12.78,12.78,0,0,1,45.15,27a37.53,37.53,0,0,0,.81-5.3c0-1.12-.42-1.75-1.63-1.66-.54,0-1.17.11-1.52-.37-1.06-1.41-2.36-1-3.6-.5a11.15,11.15,0,0,0-5.59,5.49c-.45.85-.81,1.74-1.24,2.67a13.35,13.35,0,0,0-5.9-6.41c-2-1.21-4.09-2.24-6.19-3.26a19.81,19.81,0,0,1-5.06-3.18C12.37,11.76,13,8.5,16.56,6.91a12.43,12.43,0,0,1,8-.47c4.33,1,5.4,3.52,3.14,7.35a6.83,6.83,0,0,0-1.08,2.77,1.43,1.43,0,0,0,1.72,1.72,4.35,4.35,0,0,0,2.61-1.35c4.4-4.3,3.53-10.68-1.88-13.81C24,.23,16.11.71,11.49,4.19c-4.78,3.6-4.91,9.5-.31,13.33a36.32,36.32,0,0,0,6.26,3.86c2.71,1.45,5.62,2.58,7.86,4.8,2.55,2.53,2.42,5.71-.3,8.05-3.18,2.74-9.65,3.48-13.38,1.53A5.09,5.09,0,0,1,8.68,30.1c.11-.82.29-1.64.4-2.46.21-1.53-.62-2.33-2.14-2a4.77,4.77,0,0,0-3.7,4,8.91,8.91,0,0,0,4.26,9.52c4.62,2.9,9.67,3.17,14.83,2,4.59-1.08,8.28-3.41,10-8.14,2.47,3,4.77,3.3,7.94,1.06a3.07,3.07,0,0,0,.59-.46c.62-.73,1-.71,1.49.21,1,1.78,2.48,2.21,4.36,1.4a10.16,10.16,0,0,0,1.51-.87c.35-.23.55-.33.91.09C50.57,36,52,35.8,53,33.8c1.1-2.24,2.16-4.51,3.25-6.75a3.81,3.81,0,0,1,1.11-1.65c-.11.83-.2,1.39-.26,1.95-.23,2.14-.89,4.25-.43,6.44.15.73.44,1.4,1.23,1.58a2.36,2.36,0,0,0,2.28-.7,3.3,3.3,0,0,0,.66-1.19q1.33-3.44,2.7-6.86c.15-.37.17-.85.73-1.14-.06.59-.12,1-.15,1.49a20.1,20.1,0,0,0,.29,6.58c.45,1.58,1.2,2,2.76,1.83a8.39,8.39,0,0,0,3.78-1.53c.28-.19.51-.52.91,0,1.53,1.9,2.79,2.08,4.92.83A16.35,16.35,0,0,0,79.88,31.91ZM95.84,47H94.09c-.5,0-.61.3-.61.74s.22.59.62.59a7.17,7.17,0,0,1,1.25,0c.5.09,1.28-.39,1.43.51a1.71,1.71,0,0,1-1,2.15c-3.68,1.73-6.87-.34-6.67-4.41.08-1.68.58-3.18,2.32-3.79s3.48-.55,4.76,1.06c.54.68,1.12.35,1.53.05s-.06-.75-.28-1c-1.4-1.75-3.34-1.87-5.34-1.66a5,5,0,0,0-4.61,4.9c-.21,3.61,1.19,6,4,6.56a8.05,8.05,0,0,0,4.9-.46,2.57,2.57,0,0,0,1.86-2.82C98.16,47,98.27,47,95.84,47ZM33.63,49.41a6.76,6.76,0,0,0,1,0,1.67,1.67,0,0,1,2.15,1.44,6.68,6.68,0,0,0,.6,1.5c.3.6.9.44,1.33.31s.15-.64,0-.93c-1.27-3.21-2.58-6.41-3.85-9.62a1.13,1.13,0,0,0-1.2-.83,1.19,1.19,0,0,0-1.3.87c-1.28,3.21-2.61,6.4-3.9,9.6-.11.28-.54.74,0,.91.43.13,1,.27,1.34-.3a6.3,6.3,0,0,0,.34-.8c.87-2.15.87-2.15,3.14-2.15Zm8.19,2.45c2.52,1.78,5,1.06,5.6-1.6a8.94,8.94,0,0,0,0-4.2,2.85,2.85,0,0,0-3-2.3,4.49,4.49,0,0,0-2.64,1c0-1.11,0-2.06,0-3,0-.55.07-1.09-.79-1.07s-.77.57-.77,1.11c0,3.24,0,6.48,0,9.72,0,.43-.25,1,.53,1.18S41.68,52.43,41.82,51.87Zm16.48-.55a1.8,1.8,0,0,0,2.33,1.41.52.52,0,0,0,.51-.46c0-.22,0-.46-.27-.49-1.23-.17-1-1.12-1-1.92,0-1,0-2,0-3,0-1.6-.55-2.45-1.74-2.86-1.61-.55-3.77-.18-4.54.85-.27.36-.8.87-.23,1.26a.94.94,0,0,0,1.46-.37,2.13,2.13,0,0,1,2.67-.58,1.49,1.49,0,0,1,.81,1.68c-.11.74-.78.46-1.22.48a7.63,7.63,0,0,0-2.94.46,2.62,2.62,0,0,0-1.42,3.14,2.24,2.24,0,0,0,2.4,1.9A3.63,3.63,0,0,0,58.3,51.31Zm73.09-6.23c-.11-.7-.12-1.25-.91-1.16s-.6.67-.61,1.11q0,3.25,0,6.49c0,.53-.21,1.22.77,1.21s.78-.66.79-1.21c0-1.5,0-3,.06-4.49A2.1,2.1,0,0,1,133.83,45c1.39.08,1.52,1.08,1.53,2.13,0,1.54,0,3.08,0,4.62,0,.51,0,1,.74,1s.79-.42.79-1c0-1.75,0-3.5,0-5.25-.06-2-1-2.84-3-2.75A3.48,3.48,0,0,0,131.39,45.08ZM120.3,48.19c0,2.93,1.14,4.49,3.41,4.61,3,.16,4.6-1.5,4.44-4.73-.13-2.47-.85-3.66-2.51-4.12C122.42,43.07,120.32,44.74,120.3,48.19ZM65.07,52.8h.37c2,0,3.11-.8,3.3-2.2s-.6-2.34-2.61-2.92c-.68-.19-1.36-.38-2-.62a1,1,0,0,1-.73-1,1,1,0,0,1,.88-.93c1-.21,2.08-.29,2.84.7a.85.85,0,0,0,1.23.14c.45-.34,0-.79-.2-1.07-1.07-1.22-2.5-1.2-3.92-1s-2.24,1-2.32,2.18.49,1.92,1.92,2.41c.9.31,1.84.54,2.73.86a1.13,1.13,0,0,1-.17,2.15c-1.21.29-2.42.42-3.31-.72a.83.83,0,0,0-1.3-.13c-.4.35,0,.78.26,1.08A3.47,3.47,0,0,0,65.07,52.8Zm8.28,0H74c1.75-.08,2.85-.9,3-2.24s-.53-2.23-2.3-2.78c-.75-.24-1.52-.42-2.27-.68A1,1,0,0,1,71.63,46a1,1,0,0,1,.92-.89,2.56,2.56,0,0,1,2.75.67.83.83,0,0,0,1.31.12c.36-.36,0-.8-.31-1.08a4,4,0,0,0-3.6-1c-1.67.16-2.49.92-2.58,2.2s.54,2,2.13,2.52c.83.27,1.68.47,2.5.78a1.07,1.07,0,0,1,.74,1.18,1.11,1.11,0,0,1-1,1c-1.22.27-2.42.36-3.28-.81A.82.82,0,0,0,70,50.59c-.51.35,0,.75.18,1A3.4,3.4,0,0,0,73.35,52.8Zm32.58-1c.21.56.39,1.14,1.18.95.39-.1.42-.33.42-.64,0-2.5,0-5,0-7.5,0-.5-.25-.65-.7-.64s-.76.07-.77.59c0,.33,0,.67,0,1a26,26,0,0,1-.13,4.36,2,2,0,0,1-2.37,1.72c-1.3-.11-1.48-1-1.48-2,0-1.5,0-3,0-4.5,0-.51.18-1.12-.72-1.13s-.81.5-.81,1.07c0,1.62,0,3.25,0,4.87.07,2.39,1.39,3.37,3.72,2.87A5.29,5.29,0,0,0,105.92,51.77Zm9-5q0-2.55,0-5.1c0-.51,0-1-.74-1s-.76.42-.76,1q0,5,0,10.08c0,.5-.07,1,.72,1s.78-.54.78-1.08Q114.93,49.23,114.93,46.8Zm3.65-.05c0-1.62,0-3.24,0-4.86,0-.57.12-1.2-.82-1.18s-.74.6-.74,1.12q0,4.86,0,9.73c0,.56-.16,1.21.8,1.18s.74-.71.75-1.24C118.6,49.91,118.58,48.33,118.58,46.75ZM50.89,48.32c0-1.16,0-2.33,0-3.49,0-.61-.14-.93-.83-.91s-.78.26-.77.84c0,2.37,0,4.74,0,7.11,0,.53.12.85.76.87s.85-.33.84-.92C50.87,50.65,50.89,49.49,50.89,48.32Zm27.7,0c0,1.17,0,2.33,0,3.5,0,.63.21.9.87.89s.74-.36.74-.88c0-2.37,0-4.75,0-7.12,0-.6-.23-.8-.81-.8s-.83.2-.81.8C78.6,45.93,78.58,47.14,78.58,48.35Zm31.15,0c0,1.17,0,2.33,0,3.5,0,.54.12.86.76.86s.75-.36.75-.88c0-2.37,0-4.75,0-7.12,0-.6-.27-.8-.84-.79s-.67.34-.67.81C109.74,46,109.73,47.17,109.73,48.37ZM83.92,49h1.36c.45,0,.69-.16.69-.65s-.17-.78-.71-.77H82.54c-.51,0-.61.3-.61.72s.12.72.63.69S83.47,49,83.92,49ZM50,40.72c-.48-.09-.67.16-.69.68s.34.73.85.74.73-.19.75-.72S50.56,40.66,50,40.72Zm30.19.69c.08-.49-.19-.69-.71-.7s-.89.08-.88.73.32.7.8.69S80.23,42.07,80.17,41.41Zm31,0c.06-.5-.13-.77-.68-.74s-.81,0-.83.61.13.85.74.82S111.28,42,111.22,41.45Z" transform="translate(-0.22 -0.22)"/><path class="cls-2" d="M79.88,31.91a16.35,16.35,0,0,1-3.11,2.76c-2.12,1.26-3.39,1.08-4.92-.83-.4-.5-.63-.18-.91,0a8.39,8.39,0,0,1-3.78,1.53c-1.56.2-2.32-.25-2.76-1.83A20.1,20.1,0,0,1,64.11,27c0-.45.09-.9.15-1.49-.55.3-.58.77-.73,1.14q-1.37,3.42-2.7,6.86a3.3,3.3,0,0,1-.66,1.19,2.36,2.36,0,0,1-2.28.7c-.79-.18-1.08-.85-1.23-1.58-.46-2.19.2-4.3.43-6.44.06-.56.15-1.11.26-1.95A3.81,3.81,0,0,0,56.24,27c-1.1,2.25-2.15,4.51-3.25,6.75-1,2-2.42,2.22-3.84.56-.36-.42-.56-.32-.91-.09a10.16,10.16,0,0,1-1.51.87c-1.88.81-3.38.38-4.36-1.4-.51-.92-.87-.94-1.49-.21a3.07,3.07,0,0,1-.59.46c-3.17,2.24-5.48,1.95-7.94-1.06-1.72,4.72-5.41,7.05-10,8.14-5.16,1.22-10.21.94-14.83-2A8.91,8.91,0,0,1,3.24,29.6a4.77,4.77,0,0,1,3.7-4c1.52-.33,2.34.47,2.14,2-.11.82-.29,1.64-.4,2.46a5.09,5.09,0,0,0,2.94,5.66c3.73,2,10.2,1.21,13.38-1.53,2.72-2.34,2.85-5.52.3-8.05-2.23-2.22-5.15-3.35-7.86-4.8a36.32,36.32,0,0,1-6.26-3.86c-4.6-3.83-4.47-9.73.31-13.33C16.11.71,24,.23,29,3.13c5.41,3.14,6.28,9.52,1.88,13.81a4.35,4.35,0,0,1-2.61,1.35,1.43,1.43,0,0,1-1.72-1.72,6.83,6.83,0,0,1,1.08-2.77c2.26-3.83,1.19-6.36-3.14-7.35a12.43,12.43,0,0,0-8,.47C13,8.5,12.37,11.76,15.23,14.45a19.81,19.81,0,0,0,5.06,3.18c2.1,1,4.19,2,6.19,3.26a13.35,13.35,0,0,1,5.9,6.41c.43-.94.8-1.83,1.24-2.67a11.15,11.15,0,0,1,5.59-5.49c1.24-.51,2.55-.92,3.6.5.35.47,1,.4,1.52.37,1.21-.09,1.65.54,1.63,1.66a37.53,37.53,0,0,1-.81,5.3,12.78,12.78,0,0,0-.25,3.48c.1.94.62,1.28,1.46.81,1.41-.78,2.58-1.67,2.72-3.56a33.24,33.24,0,0,1,1.47-7.46,1.92,1.92,0,0,1,1.18-1.5c1.66-.53,2.61.1,2.51,1.83-.09,1.57-.33,3.13-.5,4.71.51.06.51-.37.66-.61.92-1.44,1.8-2.9,2.71-4.34a4.26,4.26,0,0,1,1.19-1.27,2.06,2.06,0,0,1,2.24-.15,1.78,1.78,0,0,1,.83,1.94c-.13,1.57-.61,3.08-.69,4.72l1.71-2.69a28.31,28.31,0,0,1,2.35-3.38,2.1,2.1,0,0,1,2.47-.69c1,.33,1.09,1.1,1.09,2,0,2.1-.48,4.14-.65,6.21a10.14,10.14,0,0,0,0,3.23c.19.81.64,1.16,1.46.76,1.32-.65,2.56-1.29,2.68-3.09a45.88,45.88,0,0,1,.75-4.68,9,9,0,0,1,1-3.07,2.54,2.54,0,0,1,2.66-1.46c.95.11,1.29.49,1.11,1.48-.52,3-1,6-1.45,9a3.45,3.45,0,0,0-.09.86,1.38,1.38,0,0,0,.67,1.26A1.27,1.27,0,0,0,77.91,31a4.6,4.6,0,0,0,1.56-3c.49-2.53,1-5.06,1.47-7.6.14-.77.42-1.37,1.22-1.55a3,3,0,0,1,2.64.3c.51.38.44,1,.35,1.5-.41,2.42-.86,4.84-1.23,7.26-.18,1.16-.75,2.63.39,3.37s2.14-.46,3.19-.92c.78-.34.76-.93.73-1.64a10.75,10.75,0,0,1,3-8.32A5.55,5.55,0,0,1,94,18.8a4.81,4.81,0,0,1,5.21,1.82,4.74,4.74,0,0,1-.37,5.5,10.29,10.29,0,0,1-4.93,3.68c-1,.4-1.07.64-.23,1.37a2.5,2.5,0,0,0,2.25.42,14.23,14.23,0,0,0,5.76-2.87c.44-.33.39-.76.36-1.24a38.36,38.36,0,0,1,5.14-20.81,11.29,11.29,0,0,1,3.11-3.71A3.61,3.61,0,0,1,114,2.15c1.38.56,1.5,1.91,1.57,3.17a18.7,18.7,0,0,1-1.66,8.14A116.23,116.23,0,0,1,108,25a7.85,7.85,0,0,0-1.19,4c.07,2,.79,2.38,2.52,1.53a19.57,19.57,0,0,0,3.55-2.32c.55-.44.83-.37,1.06.28,1.23,3.58,1.81,2.46-1.4,4.56a16.55,16.55,0,0,1-4,1.95c-2.46.78-3.63.35-4.8-1.94-.44-.87-.73-1-1.58-.4A13.3,13.3,0,0,1,96,35.34a6.34,6.34,0,0,1-6-2c-.47-.54-.81-.51-1.35-.16A13.72,13.72,0,0,1,84.39,35c-2.37.58-3.36,0-4.18-2.29C80.13,32.51,80,32.28,79.88,31.91ZM36.52,29.66a4.85,4.85,0,0,0,0,.62c.09.72.27,1.45,1.08,1.66s1.25-.32,1.66-.87a7.15,7.15,0,0,0,1.23-2.71c.38-1.66.72-3.33,1.05-5,.08-.39.43-.89,0-1.15s-.89.07-1.26.33C37.82,24.26,36.84,26.79,36.52,29.66Zm70.15-9A38,38,0,0,0,111.74,8.5c.12-.62.47-1.63-.13-1.84-.77-.28-1.21.69-1.57,1.3A26.69,26.69,0,0,0,106.66,20.71ZM92.51,26.14c.06.47-.17,1.17.72.9a5.16,5.16,0,0,0,3.25-2.55,1.7,1.7,0,0,0-.35-2.18c-.68-.56-1.45-.19-2.06.29A4.92,4.92,0,0,0,92.51,26.14Z" transform="translate(-0.22 -0.22)"/><path class="cls-3" d="M95.84,47c2.43,0,2.32,0,2.47,2.41a2.57,2.57,0,0,1-1.86,2.82,8.05,8.05,0,0,1-4.9.46c-2.84-.6-4.24-2.95-4-6.56a5,5,0,0,1,4.61-4.9c2-.22,3.95-.1,5.34,1.66.22.28.77.68.28,1s-1,.63-1.53-.05c-1.28-1.61-3-1.67-4.76-1.06s-2.24,2.11-2.32,3.79c-.2,4.07,3,6.14,6.67,4.41a1.71,1.71,0,0,0,1-2.15c-.16-.9-.93-.42-1.43-.51a7.17,7.17,0,0,0-1.25,0c-.4,0-.62-.15-.62-.59s.1-.74.61-.74Z" transform="translate(-0.22 -0.22)"/><path class="cls-3" d="M33.63,49.41h-.25c-2.27,0-2.27,0-3.14,2.15a6.3,6.3,0,0,1-.34.8c-.33.57-.91.42-1.34.3-.58-.17-.15-.63,0-.91,1.29-3.2,2.62-6.39,3.9-9.6a1.19,1.19,0,0,1,1.3-.87,1.13,1.13,0,0,1,1.2.83c1.27,3.21,2.58,6.41,3.85,9.62.11.29.53.75,0,.93s-1,.29-1.33-.31a6.68,6.68,0,0,1-.6-1.5,1.67,1.67,0,0,0-2.15-1.44A6.76,6.76,0,0,1,33.63,49.41Zm0-6.58c-.41,1.07-.69,1.8-1,2.53-1.2,3.05-1.13,3.14,2.16,2.78.49-.05.83-.12.59-.74C34.87,46,34.32,44.57,33.65,42.83Z" transform="translate(-0.22 -0.22)"/><path class="cls-3" d="M41.82,51.87c-.15.56-.41,1-1.09.85s-.53-.75-.53-1.18c0-3.24,0-6.48,0-9.72,0-.54-.08-1.09.77-1.11s.79.51.79,1.07c0,1,0,1.91,0,3a4.49,4.49,0,0,1,2.64-1,2.85,2.85,0,0,1,3,2.3,8.94,8.94,0,0,1,0,4.2C46.83,52.92,44.35,53.65,41.82,51.87Zm4.24-3.41c-.06-.65-.07-1.19-.17-1.72-.19-1-.66-1.72-1.78-1.76a2,2,0,0,0-2.17,1.63A6.82,6.82,0,0,0,42,50.29a1.89,1.89,0,0,0,2.09,1.4,1.69,1.69,0,0,0,1.72-1.5C45.93,49.58,46,49,46.06,48.45Z" transform="translate(-0.22 -0.22)"/><path class="cls-3" d="M58.3,51.31a3.63,3.63,0,0,1-3.23,1.5,2.24,2.24,0,0,1-2.4-1.9,2.62,2.62,0,0,1,1.42-3.14A7.63,7.63,0,0,1,57,47.31c.44,0,1.11.26,1.22-.48a1.49,1.49,0,0,0-.81-1.68,2.13,2.13,0,0,0-2.67.58.94.94,0,0,1-1.46.37c-.57-.39,0-.9.23-1.26.77-1,2.93-1.4,4.54-.85,1.19.41,1.71,1.26,1.74,2.86,0,1,0,2,0,3,0,.81-.19,1.75,1,1.92.25,0,.3.27.27.49a.52.52,0,0,1-.51.46A1.8,1.8,0,0,1,58.3,51.31Zm-1.49-2.88a9.71,9.71,0,0,0-1.32.16,1.61,1.61,0,0,0-1.26,2.08c.31,1,1.1,1.11,2,.93a2.51,2.51,0,0,0,1.67-1.2,1.74,1.74,0,0,0,.3-1.65C57.94,48.2,57.31,48.56,56.81,48.43Z" transform="translate(-0.22 -0.22)"/><path class="cls-3" d="M131.39,45.08a3.48,3.48,0,0,1,2.47-1.31c2-.09,3,.73,3,2.75.05,1.75,0,3.5,0,5.25,0,.55,0,1-.79,1s-.74-.5-.74-1c0-1.54,0-3.08,0-4.62,0-1-.14-2.05-1.53-2.13A2.1,2.1,0,0,0,131.49,47c-.1,1.49,0,3-.06,4.49,0,.55.18,1.21-.79,1.21s-.77-.68-.77-1.21q0-3.25,0-6.49c0-.45-.21-1,.61-1.11S131.28,44.38,131.39,45.08Z" transform="translate(-0.22 -0.22)"/><path class="cls-3" d="M120.3,48.19c0-3.46,2.12-5.13,5.34-4.23,1.65.46,2.38,1.65,2.51,4.12.17,3.23-1.39,4.89-4.44,4.73C121.44,52.68,120.29,51.12,120.3,48.19Zm6.21.11a5.47,5.47,0,0,0-.24-2A1.85,1.85,0,0,0,124.44,45a2,2,0,0,0-2.21,1.22,5.92,5.92,0,0,0,0,4.36,1.86,1.86,0,0,0,1.89,1.15,2,2,0,0,0,2-1.2A4.85,4.85,0,0,0,126.51,48.3Z" transform="translate(-0.22 -0.22)"/><path class="cls-3" d="M65.07,52.81a3.48,3.48,0,0,1-3-1.09c-.24-.3-.66-.73-.26-1.08a.83.83,0,0,1,1.3.13c.89,1.14,2.1,1,3.31.72a1.13,1.13,0,0,0,.17-2.15c-.9-.33-1.83-.55-2.73-.86-1.43-.49-2-1.22-1.92-2.41s.81-2,2.32-2.18,2.86-.23,3.92,1c.25.28.65.73.2,1.07a.85.85,0,0,1-1.23-.14c-.76-1-1.8-.91-2.84-.7a1,1,0,0,0-.88.93,1,1,0,0,0,.73,1c.66.24,1.35.43,2,.62,2,.58,2.81,1.46,2.61,2.92s-1.34,2.17-3.3,2.2Z" transform="translate(-0.22 -0.22)"/><path class="cls-3" d="M73.35,52.8a3.4,3.4,0,0,1-3.14-1.16c-.21-.29-.69-.69-.18-1a.82.82,0,0,1,1.22.12c.87,1.17,2.06,1.08,3.28.81a1.11,1.11,0,0,0,1-1,1.07,1.07,0,0,0-.74-1.18c-.82-.31-1.67-.51-2.5-.78C70.66,48,70,47.28,70.12,46s.91-2,2.58-2.2a4,4,0,0,1,3.6,1c.26.28.68.72.31,1.08a.83.83,0,0,1-1.31-.12,2.56,2.56,0,0,0-2.75-.67,1,1,0,0,0-.92.89,1,1,0,0,0,.77,1.14c.75.25,1.52.44,2.27.68,1.77.56,2.46,1.4,2.3,2.78s-1.25,2.16-3,2.24Z" transform="translate(-0.22 -0.22)"/><path class="cls-3" d="M105.92,51.77a5.29,5.29,0,0,1-1.67,1c-2.33.51-3.65-.48-3.72-2.87,0-1.62,0-3.25,0-4.87,0-.57,0-1.08.81-1.07s.71.63.72,1.13c0,1.5,0,3,0,4.5,0,1,.18,1.94,1.48,2a2,2,0,0,0,2.37-1.72,26,26,0,0,0,.13-4.36c0-.33,0-.67,0-1,0-.52.35-.58.77-.59s.7.14.7.64c0,2.5,0,5,0,7.5,0,.3,0,.54-.42.64C106.32,52.91,106.14,52.33,105.92,51.77Z" transform="translate(-0.22 -0.22)"/><path class="cls-3" d="M114.93,46.8q0,2.43,0,4.85c0,.54.08,1.09-.78,1.08s-.72-.5-.72-1q0-5,0-10.08c0-.54,0-1,.76-1s.74.49.74,1Q114.93,44.25,114.93,46.8Z" transform="translate(-0.22 -0.22)"/><path class="cls-3" d="M118.58,46.75c0,1.58,0,3.16,0,4.74,0,.53.22,1.22-.75,1.24s-.8-.62-.8-1.18q0-4.86,0-9.73c0-.52-.14-1.1.74-1.12s.82.61.82,1.18C118.59,43.51,118.58,45.13,118.58,46.75Z" transform="translate(-0.22 -0.22)"/><path class="cls-3" d="M50.89,48.32c0,1.16,0,2.33,0,3.49,0,.59-.14.93-.84.92s-.76-.33-.76-.87c0-2.37,0-4.74,0-7.11,0-.57.16-.82.77-.84s.84.3.83.91C50.87,46,50.89,47.16,50.89,48.32Z" transform="translate(-0.22 -0.22)"/><path class="cls-3" d="M78.58,48.35c0-1.21,0-2.42,0-3.62,0-.6.24-.8.81-.8s.81.2.81.8c0,2.37,0,4.75,0,7.12,0,.52-.1.87-.74.88s-.88-.26-.87-.89C78.6,50.68,78.58,49.51,78.58,48.35Z" transform="translate(-0.22 -0.22)"/><path class="cls-3" d="M109.73,48.37c0-1.21,0-2.42,0-3.62,0-.47.08-.81.67-.81s.84.19.84.79c0,2.37,0,4.75,0,7.12,0,.52-.1.88-.75.88s-.77-.32-.76-.86C109.74,50.71,109.73,49.54,109.73,48.37Z" transform="translate(-0.22 -0.22)"/><path class="cls-3" d="M83.92,49c-.45,0-.91,0-1.36,0s-.63-.26-.63-.69.1-.73.61-.72h2.73c.54,0,.72.26.71.77s-.25.65-.69.65Z" transform="translate(-0.22 -0.22)"/><path class="cls-3" d="M50,40.72c.58-.06.93,0,.91.7s-.24.73-.75.72-.87-.09-.85-.74S49.5,40.63,50,40.72Z" transform="translate(-0.22 -0.22)"/><path class="cls-3" d="M80.17,41.41c.06.66-.34.72-.8.73s-.79-.11-.8-.69.35-.74.88-.73S80.25,40.92,80.17,41.41Z" transform="translate(-0.22 -0.22)"/><path class="cls-3" d="M111.22,41.45c.06.58-.3.67-.76.69s-.75-.27-.74-.82.4-.59.83-.61S111.28,41,111.22,41.45Z" transform="translate(-0.22 -0.22)"/><path class="cls-1" d="M36.52,29.66c.33-2.87,1.3-5.4,3.78-7.12.37-.26.86-.59,1.26-.33s.07.77,0,1.15c-.34,1.67-.67,3.34-1.05,5a7.15,7.15,0,0,1-1.23,2.71c-.41.55-.91,1.06-1.66.87s-1-.93-1.08-1.66A4.85,4.85,0,0,1,36.52,29.66Z" transform="translate(-0.22 -0.22)"/><path class="cls-1" d="M106.66,20.71A26.69,26.69,0,0,1,110,8c.36-.61.8-1.58,1.57-1.3.59.22.25,1.22.13,1.84A38,38,0,0,1,106.66,20.71Z" transform="translate(-0.22 -0.22)"/><path class="cls-1" d="M92.51,26.14a4.92,4.92,0,0,1,1.56-3.54c.61-.47,1.37-.84,2.06-.29a1.7,1.7,0,0,1,.35,2.18A5.16,5.16,0,0,1,93.23,27C92.34,27.31,92.57,26.6,92.51,26.14Z" transform="translate(-0.22 -0.22)"/><path class="cls-1" d="M33.65,42.83c.67,1.74,1.22,3.16,1.77,4.57.24.61-.1.68-.59.74-3.28.35-3.35.27-2.16-2.78C33,44.63,33.24,43.9,33.65,42.83Z" transform="translate(-0.22 -0.22)"/><path class="cls-1" d="M46.06,48.45c-.07.51-.13,1.13-.25,1.74a1.69,1.69,0,0,1-1.72,1.5A1.89,1.89,0,0,1,42,50.29a6.82,6.82,0,0,1-.06-3.68A2,2,0,0,1,44.11,45c1.11,0,1.59.79,1.78,1.76C46,47.26,46,47.81,46.06,48.45Z" transform="translate(-0.22 -0.22)"/><path class="cls-1" d="M56.81,48.43c.5.13,1.13-.23,1.39.32a1.74,1.74,0,0,1-.3,1.65,2.51,2.51,0,0,1-1.67,1.2c-.9.19-1.69.11-2-.93a1.61,1.61,0,0,1,1.26-2.08A9.71,9.71,0,0,1,56.81,48.43Z" transform="translate(-0.22 -0.22)"/><path class="cls-1" d="M126.51,48.3a4.84,4.84,0,0,1-.34,2.19,2,2,0,0,1-2,1.2,1.86,1.86,0,0,1-1.89-1.15,5.92,5.92,0,0,1,0-4.36A2,2,0,0,1,124.44,45a1.85,1.85,0,0,1,1.83,1.39A5.45,5.45,0,0,1,126.51,48.3Z" transform="translate(-0.22 -0.22)"/></g></g></svg>